# xmcd
#
# Track frame offsets:
#	150
#	11286
#	21648
#	33850
#	45028
#	57552
#	70753
#	82791
#	95854
#	105637
#	116657
#	127524
#	139760
#	149212
#	160661
#	172802
#	184134
#	195872
#	206032
#	218887
#	230948
#	244327
#	253005
#	267105
#	277024
#	290250
#
# Disc length: 3995 seconds
#
# Revision: 0
# Processed by: cddbd v1.4PL0 Copyright (c) Steve Scherf et al.
# Submitted via: audiograbber 1.81.03
#
DISCID=760f991a
DTITLE=Various Artist - Sun 50 Years Disc 2
DYEAR=1900
DGENRE=Pop
TTITLE0=Little Junior's Blue Flames  - Mystery Train
TTITLE1=Carl Perkins - Blue Suede Shoes
TTITLE2=Prisonaires - Just Walkin' In The Rain
TTITLE3=Billy 'The Kid' Emerson - Red Hot
TTITLE4=Johnny Cash and Tennessee Two - I Walk The Line
TTITLE5=Jerry Lee Lewis - Whole Lotta Shakin' Goin' On
TTITLE6=Million Dollar Quartet - Paralyzed
TTITLE7=Warren Smith - Rock'n'roll Ruby
TTITLE8=Roy Orbison and Teen Kings - Go! Go! Go!
TTITLE9=Sonny Burgess - We Wanna Boogie
TTITLE10=Bill Justis and His Orchestra - Raunchy
TTITLE11=Gene Simmons - Drinkin' Wine
TTITLE12=Billy Riley and His Little Green Men - Flyin' Saucers Rock and Roll
TTITLE13=Dickey Lee and Collegiates - Dreamy Nights
TTITLE14=Tracy Pendarvis and Swampers  - A Thousand Guitars
TTITLE15=Carl McVoy - Tootsie
TTITLE16=Johnny Carroll - That's The Way I Love
TTITLE17=Onie Wheeler - Walkin' Shoes
TTITLE18=Ray Smith - Shake Around
TTITLE19=Carl Mann - Pretend
TTITLE20=Ray Harris - Greenback Dollar, Watch And Chain
TTITLE21=Charlie Rich - Rebound
TTITLE22=Earl Hooker - The Hucklebuck
TTITLE23=Thomas Wayne - Tragedy
TTITLE24=Barbara Pittman - I Need A Man
TTITLE25=Bill Pinky and Turks - After The Hop
EXTD=
EXTT0=
EXTT1=
EXTT2=
EXTT3=
EXTT4=
EXTT5=
EXTT6=
EXTT7=
EXTT8=
EXTT9=
EXTT10=
EXTT11=
EXTT12=
EXTT13=
EXTT14=
EXTT15=
EXTT16=
EXTT17=
EXTT18=
EXTT19=
EXTT20=
EXTT21=
EXTT22=
EXTT23=
EXTT24=
EXTT25=
PLAYORDER=
